<svg
    width="90"
    height="21"
    viewBox="0 0 90 21"
    fill="none"
    xmlns="http://www.w3.org/2000/svg"
    className="h-[20.87px] w-[90px]"
    preserveAspectRatio="xMidYMid meet"
>
    <path
        d="M8.4396 11.2185C9.70542 11.2189 10.9239 11.6996 11.8492 12.5634C12.7744 13.4273 13.3375 14.6099 13.4248 15.8727C13.4284 15.9636 13.467 16.0495 13.5326 16.1125C13.5982 16.1755 13.6856 16.2107 13.7765 16.2106H16.4932C16.5421 16.2116 16.5906 16.2026 16.6358 16.1841C16.6811 16.1657 16.722 16.1381 16.7563 16.1033C16.7905 16.0684 16.8172 16.0269 16.8348 15.9813C16.8524 15.9358 16.8606 15.8871 16.8587 15.8383C16.7707 13.6643 15.8452 11.6087 14.2759 10.1017C12.7067 8.5947 10.6153 7.75311 8.4396 7.75311C6.2639 7.75311 4.17254 8.5947 2.60328 10.1017C1.03403 11.6087 0.108533 13.6643 0.0205316 15.8383C0.0186428 15.8871 0.026755 15.9358 0.0443623 15.9813C0.0619697 16.0269 0.0887028 16.0684 0.122925 16.1033C0.157146 16.1381 0.198137 16.1657 0.243372 16.1841C0.288608 16.2026 0.337142 16.2116 0.385988 16.2106H3.1027C3.19362 16.2107 3.28104 16.1755 3.34661 16.1125C3.41218 16.0495 3.45079 15.9636 3.45436 15.8727C3.54166 14.6099 4.10476 13.4273 5.03001 12.5634C5.95527 11.6996 7.17378 11.2189 8.4396 11.2185Z"
        fill="#3355FF"
    />
    <path
        d="M16.121 1.78583H0.730902C0.327241 1.78583 0 2.11306 0 2.51672V4.44049C0 4.84415 0.327241 5.17138 0.730902 5.17138H16.121C16.5247 5.17138 16.8519 4.84415 16.8519 4.44049V2.51672C16.8519 2.11306 16.5247 1.78583 16.121 1.78583Z"
        fill="#3355FF"
    />
    <path
        d="M34.5866 6.17811C34.0708 5.62734 33.4454 5.19065 32.7507 4.89614C32.056 4.60163 31.3073 4.45582 30.5528 4.46809C29.7946 4.45443 29.0422 4.60231 28.3455 4.9019C27.6488 5.20149 27.0239 5.64593 26.5122 6.20569C25.4317 7.34873 24.8489 8.87388 24.8919 10.4462V20.8718H27.5051V15.4177C27.8119 15.6287 28.1346 15.8155 28.4705 15.9762C29.1172 16.2796 29.8248 16.4306 30.539 16.4175C31.2961 16.4295 32.0474 16.283 32.7445 15.9873C33.4415 15.6916 34.069 15.2533 34.5866 14.7006C35.6726 13.5494 36.2577 12.0145 36.2138 10.4325C36.2356 9.65116 36.1031 8.87323 35.8239 8.14321C35.5447 7.41319 35.1242 6.74541 34.5866 6.17811ZM27.5051 10.4256C27.4968 9.52782 27.8295 8.66038 28.436 7.99844C28.6966 7.68426 29.0248 7.43302 29.3962 7.26348C29.7675 7.09394 30.1723 7.01047 30.5804 7.01932C30.9741 7.02325 31.3625 7.11143 31.7193 7.27794C32.0761 7.44445 32.3931 7.68542 32.649 7.98465C32.9601 8.30984 33.2034 8.69382 33.3644 9.11411C33.5254 9.53441 33.601 9.9826 33.5867 10.4325C33.6022 10.8825 33.5271 11.331 33.366 11.7514C33.2049 12.1719 32.9611 12.5557 32.649 12.8803C32.3931 13.1795 32.0761 13.4205 31.7193 13.587C31.3625 13.7535 30.9741 13.8417 30.5804 13.8456C30.153 13.8602 29.7282 13.7752 29.3393 13.5974C28.9044 13.3783 28.5085 13.0895 28.1671 12.7424C27.7327 12.3085 27.4853 11.722 27.4776 11.1082L27.5051 10.4256Z"
        fill="#333333"
    />
    <path
        d="M39.2202 3.0891C39.4222 3.0929 39.6229 3.05576 39.8101 2.97991C39.9973 2.90407 40.1673 2.7911 40.3097 2.64781C40.4532 2.50528 40.5669 2.33547 40.6438 2.14837C40.7208 1.96127 40.7596 1.76067 40.7579 1.55836C40.7596 1.35606 40.7208 1.15545 40.6438 0.968357C40.5669 0.781259 40.4532 0.611449 40.3097 0.468918C40.0943 0.255361 39.8205 0.110288 39.5228 0.051955C39.2251 -0.0063777 38.9169 0.0246357 38.6368 0.141093C38.3567 0.25755 38.1173 0.454248 37.9487 0.706434C37.7802 0.958621 37.69 1.25503 37.6895 1.55836C37.6865 1.96562 37.8452 2.35743 38.1308 2.64781C38.2736 2.79046 38.4437 2.90301 38.6308 2.97881C38.8179 3.05461 39.0184 3.09211 39.2202 3.0891Z"
        fill="#333333"
    />
    <path
        d="M40.53 4.6543H37.9167V16.2107H40.53V4.6543Z"
        fill="#333333"
    />
    <path d="M53.8792 0H51.2659V16.2176H53.8792V0Z" fill="#333333" />
    <path
        d="M65.0218 6.17121C64.502 5.62418 63.8764 5.1886 63.1829 4.89096C62.4895 4.59331 61.7428 4.43982 60.9881 4.43982C60.2335 4.43982 59.4868 4.59331 58.7934 4.89096C58.0999 5.1886 57.4742 5.62418 56.9544 6.17121C55.8701 7.32073 55.2851 8.8528 55.3272 10.4325C55.3035 11.216 55.4351 11.9966 55.7144 12.7291C55.9937 13.4616 56.4151 14.1316 56.9544 14.7006C57.4683 15.2524 58.0921 15.6903 58.7858 15.9861C59.4794 16.2818 60.2273 16.4288 60.9813 16.4175C61.6949 16.4323 62.4024 16.2837 63.0498 15.9831C63.3819 15.8209 63.7001 15.6318 64.0013 15.4177V16.19H66.6077V10.4325C66.6367 9.65277 66.5116 8.87503 66.2394 8.1438C65.9673 7.41257 65.5535 6.74224 65.0218 6.17121ZM64.0427 10.9979C64.0392 11.6329 63.7924 12.2424 63.3532 12.701C63.0344 13.0648 62.651 13.3663 62.2224 13.5905C61.6709 13.8458 61.0518 13.9166 60.4568 13.7924C59.8619 13.6682 59.3228 13.3556 58.9196 12.9009C58.6074 12.5764 58.3636 12.1926 58.2025 11.7721C58.0415 11.3517 57.9664 10.9031 57.9818 10.4531C57.9676 10.0033 58.0432 9.5551 58.2042 9.1348C58.3652 8.71451 58.6084 8.33053 58.9196 8.00534C59.1755 7.70611 59.4925 7.46514 59.8493 7.29863C60.2061 7.13212 60.5944 7.04394 60.9881 7.04001C61.3971 7.02775 61.8034 7.10895 62.1762 7.27742C62.549 7.4459 62.8784 7.69722 63.1394 8.01224C63.7343 8.68434 64.0543 9.55578 64.0358 10.4531L64.0427 10.9979Z"
        fill="#333333"
    />
    <path
        d="M77.8124 6.17811C77.295 5.6275 76.6684 5.19099 75.9726 4.89653C75.2768 4.60207 74.5272 4.45614 73.7718 4.4681C73.0585 4.45644 72.3516 4.60488 71.7032 4.9025C71.3742 5.06632 71.0584 5.25535 70.7586 5.46791V0H68.1453V10.4325C68.1216 11.2161 68.2532 11.9966 68.5325 12.7291C68.8118 13.4616 69.2333 14.1316 69.7726 14.7006C70.2955 15.2434 70.9226 15.6752 71.6162 15.9702C72.3099 16.2651 73.0559 16.4171 73.8097 16.4171C74.5635 16.4171 75.3095 16.2651 76.0032 15.9702C76.6968 15.6752 77.3239 15.2434 77.8469 14.7006C78.3837 14.1305 78.8026 13.46 79.0795 12.7275C79.3564 11.9951 79.4858 11.2151 79.4603 10.4325C79.4965 8.85199 78.9038 7.32179 77.8124 6.17811ZM70.731 9.84637C70.7356 9.21362 70.9823 8.60664 71.4205 8.15015C71.7466 7.79213 72.1343 7.49553 72.5651 7.27445C72.9551 7.09927 73.3788 7.01217 73.8062 7.01933C74.2 7.02326 74.5883 7.11144 74.9451 7.27795C75.3019 7.44446 75.6189 7.68543 75.8748 7.98466C76.4975 8.64531 76.8345 9.52489 76.8126 10.4325C76.8264 10.8823 76.7507 11.3304 76.5897 11.7506C76.4287 12.1708 76.1857 12.5549 75.8748 12.8803C75.6189 13.1795 75.3019 13.4205 74.9451 13.587C74.5883 13.7535 74.2 13.8417 73.8062 13.8456C73.398 13.8577 72.9924 13.7771 72.6198 13.6099C72.2472 13.4427 71.9173 13.1932 71.6549 12.8803C71.0609 12.2054 70.7433 11.3313 70.7655 10.4325L70.731 9.84637Z"
        fill="#333333"
    />
    <path
        d="M87.638 9.60513H87.5277C86.4314 9.31553 85.3281 9.01214 84.2456 8.70185C83.163 8.39157 83.2389 8.0606 83.2389 7.94338C83.2389 7.61241 83.3561 7.51588 83.4181 7.46761C83.5834 7.32771 83.7947 7.25401 84.0111 7.26075H89.2308V4.65436H83.9491C83.4905 4.63354 83.0325 4.70795 82.6041 4.87291C82.1757 5.03787 81.7861 5.28979 81.4599 5.6128C81.1631 5.91716 80.9298 6.27751 80.7735 6.67288C80.6173 7.06825 80.5412 7.49075 80.5497 7.9158C80.5497 8.89492 80.9565 10.2188 82.901 10.9704H82.9906L86.1831 11.8254C87.2795 12.2046 87.2795 12.6735 87.2795 12.8735C87.287 12.9651 87.2707 13.0571 87.232 13.1405C87.1933 13.2239 87.1336 13.2958 87.0588 13.3492C86.6832 13.5582 86.2518 13.645 85.8246 13.5975H80.5497V16.1901H85.666C86.7487 16.2534 87.8241 15.9761 88.7412 15.3971C89.1516 15.0974 89.4811 14.7004 89.7001 14.2419C89.9192 13.7834 90.0209 13.2776 89.9962 12.77C89.9973 12.0587 89.7682 11.366 89.3432 10.7956C88.9182 10.2251 88.32 9.80752 87.638 9.60513Z"
        fill="#333333"
    />
    <path
        d="M48.3632 8.30878H43.2332V10.8738H48.3632V8.30878Z"
        fill="#333333"
    />
</svg>